<svg width="25" height="24" viewBox="0 0 25 24" fill="current"  xmlns="http://www.w3.org/2000/svg">
<path fill-rule="evenodd" clip-rule="evenodd" d="M1.59623 13.5324C0.714657 12.686 0.714657 11.3139 1.59623 10.4676L6.76709 5.50357C7.64866 4.65726 9.07797 4.65726 9.95955 5.50357C10.8411 6.34988 10.8411 7.72202 9.95955 8.56833L6.38492 12L9.95955 15.4316C10.8411 16.2779 10.8411 17.6501 9.95955 18.4964C9.07797 19.3427 7.64866 19.3427 6.76709 18.4964L1.59623 13.5324Z" fill="#63D2ED"/>
<path fill-rule="evenodd" clip-rule="evenodd" d="M0.93505 12C0.93505 10.8031 1.94573 9.83286 3.19246 9.83286L21.8075 9.83286C23.0543 9.83286 24.0649 10.8031 24.0649 12C24.0649 13.1968 23.0543 14.1671 21.8075 14.1671L3.19246 14.1671C1.94573 14.1671 0.93505 13.1968 0.93505 12Z" fill="#63D2ED"/>
<path fill-rule="evenodd" clip-rule="evenodd" d="M22.2055 2.74597C23.4171 2.74597 24.3993 3.74608 24.3993 4.97978V19.0202C24.3993 20.2539 23.4171 21.254 22.2055 21.254C20.9939 21.254 20.0117 20.2539 20.0117 19.0202V4.97978C20.0117 3.74608 20.9939 2.74597 22.2055 2.74597Z" fill="#63D2ED"/>
</svg>
