<svg width="23" height="20" viewBox="0 0 23 20" fill="none" xmlns="http://www.w3.org/2000/svg">
<path d="M7.18494 7.88528L11.7437 3.32649C12.0966 2.97365 12.2948 2.49505 12.2947 1.99598C12.2946 1.49691 12.0962 1.01824 11.7433 0.665281C11.3903 0.312322 10.9116 0.11397 10.4126 0.113885C9.9135 0.1138 9.4349 0.311991 9.08206 0.66483L1.31262 8.43426C1.14593 8.60233 1.01347 8.80116 0.922465 9.01969C0.731649 9.48581 0.731683 10.0083 0.922658 10.4744C1.01374 10.693 1.14638 10.8919 1.31312 11.06L9.08514 18.832C9.4381 19.185 9.91676 19.3833 10.4158 19.3834C10.9149 19.3835 11.3935 19.1853 11.7463 18.8325C12.0992 18.4796 12.2974 18.001 12.2973 17.502C12.2972 17.0029 12.0989 16.5242 11.7459 16.1713L7.18562 11.611L20.8288 11.6133C21.0759 11.6142 21.3207 11.566 21.5491 11.4717C21.7774 11.3773 21.9849 11.2386 22.1593 11.0635C22.5083 10.7082 22.7054 10.2311 22.709 9.73303C22.7054 9.23538 22.506 8.75911 22.154 8.40715C21.8021 8.05519 21.3258 7.8558 20.8281 7.85213L7.18494 7.88528Z" fill="#63D2ED"/>
</svg>
