<svg width="38" height="25" viewBox="0 0 38 25" fill="none" xmlns="http://www.w3.org/2000/svg">
<g clip-path="url(#clip0)">
<path d="M31.29 20.13L30.22 21.27C29.8876 21.6477 29.4252 21.8863 28.9247 21.9382C28.4243 21.9901 27.9227 21.8515 27.52 21.55L27.08 21.2L25.8199 22.65C25.6422 22.8545 25.4258 23.0219 25.1833 23.1426C24.9407 23.2634 24.6767 23.3351 24.4064 23.3537C24.1361 23.3723 23.8648 23.3374 23.608 23.2509C23.3512 23.1645 23.114 23.0282 22.91 22.85L21.98 23.85C21.5015 24.3705 20.8437 24.6908 20.1389 24.7465C19.434 24.8021 18.7342 24.589 18.1799 24.15L8.53998 17.23C8.1173 16.8915 7.59141 16.708 7.04993 16.71H0.959961C0.694744 16.71 0.440405 16.6046 0.252869 16.4171C0.0653323 16.2295 -0.0400391 15.9752 -0.0400391 15.71V4.48999C-0.0400391 4.22477 0.0653323 3.97043 0.252869 3.7829C0.440405 3.59536 0.694744 3.48999 0.959961 3.48999H4.78998C5.44384 3.48892 6.07815 3.2669 6.58997 2.85999L9.58997 0.440003C10.0126 0.101544 10.5385 -0.0819883 11.08 -0.0800166H12.28L10.4999 1.76999C9.46622 2.85058 8.89681 4.29302 8.91364 5.78833C8.93046 7.28365 9.5322 8.71292 10.59 9.76999C11.6445 10.8325 13.0747 11.4375 14.5715 11.4543C16.0684 11.4712 17.5118 10.8985 18.59 9.85999L20.03 8.47998H23.03L31.1 17.35L31.3599 17.65C31.6398 18.0065 31.786 18.4496 31.7732 18.9026C31.7604 19.3557 31.5895 19.7899 31.29 20.13Z" fill="#2E3333"/>
<path d="M38 4.80001V15.49C38 15.8136 37.8715 16.1239 37.6427 16.3527C37.4139 16.5815 37.1036 16.71 36.78 16.71H34.54L24.79 5.99001C24.6636 5.84838 24.5098 5.73374 24.3379 5.65298C24.1661 5.57222 23.9798 5.52699 23.79 5.52001H19.42C19.2359 5.51604 19.0527 5.54846 18.8811 5.61538C18.7095 5.6823 18.5529 5.78244 18.42 5.91003L16.51 7.73C15.9967 8.20066 15.3213 8.45475 14.625 8.4392C13.9288 8.42365 13.2655 8.13967 12.7737 7.64657C12.2818 7.15347 11.9996 6.48939 11.9859 5.79308C11.9722 5.09678 12.228 4.42213 12.7 3.91003L15.53 0.910028C15.9459 0.484323 16.4723 0.183012 17.05 0.0400023C17.2953 -0.0206569 17.5472 -0.0508805 17.8 -0.0499941H26.23C26.7938 -0.0532549 27.34 0.145392 27.77 0.510004L30.55 2.85C31.0697 3.2821 31.7241 3.51909 32.4 3.52001H36.79C36.9541 3.52255 37.1161 3.55791 37.2663 3.62402C37.4166 3.69012 37.5521 3.78561 37.6648 3.9049C37.7776 4.02419 37.8654 4.16484 37.9229 4.31857C37.9805 4.47229 38.0067 4.636 38 4.80001Z" fill="#2E3333"/>
</g>
<defs>
<clipPath id="clip0">
<rect width="38" height="24.76" fill="white"/>
</clipPath>
</defs>
</svg>
