<svg width="33" height="33" viewBox="0 0 33 33" fill="none" xmlns="http://www.w3.org/2000/svg">
<g clip-path="url(#clip0)" filter="url(#filter0_d)">
<path d="M29 6.68817V9.17236H4V6.68817C4 5.78815 4.35694 4.92499 4.99234 4.28859C5.62775 3.65218 6.48954 3.29463 7.38813 3.29463H9.16446V1.07403C9.16446 0.794408 9.27536 0.526259 9.47277 0.32854C9.67017 0.130821 9.9379 0.0197449 10.2171 0.0197449H11.0724C11.3515 0.0197449 11.6193 0.130821 11.8167 0.32854C12.0141 0.526259 12.125 0.794408 12.125 1.07403V3.29463H21.6645V1.07403C21.6645 0.794408 21.7754 0.526259 21.9728 0.32854C22.1702 0.130821 22.4379 0.0197449 22.7171 0.0197449H23.5724C23.8515 0.0197449 24.1193 0.130821 24.3167 0.32854C24.5141 0.526259 24.625 0.794408 24.625 1.07403V3.29463H25.6118C26.5104 3.29463 27.3722 3.65218 28.0076 4.28859C28.643 4.92499 29 5.78815 29 6.68817V6.68817Z" fill="#63D2ED"/>
<path d="M29 11.1294V21.5999C29 22.5005 28.6432 23.3644 28.008 24.0018C27.3728 24.6393 26.511 24.9983 25.6118 25H7.38813C6.48893 24.9983 5.62716 24.6393 4.99194 24.0018C4.35673 23.3644 4 22.5005 4 21.5999V11.1294H29Z" fill="#63D2ED"/>
</g>
<defs>
<filter id="filter0_d" x="0" y="0" width="33" height="33" filterUnits="userSpaceOnUse" color-interpolation-filters="sRGB">
<feFlood flood-opacity="0" result="BackgroundImageFix"/>
<feColorMatrix in="SourceAlpha" type="matrix" values="0 0 0 0 0 0 0 0 0 0 0 0 0 0 0 0 0 0 127 0" result="hardAlpha"/>
<feOffset dy="4"/>
<feGaussianBlur stdDeviation="2"/>
<feComposite in2="hardAlpha" operator="out"/>
<feColorMatrix type="matrix" values="0 0 0 0 0 0 0 0 0 0 0 0 0 0 0 0 0 0 0.25 0"/>
<feBlend mode="normal" in2="BackgroundImageFix" result="effect1_dropShadow"/>
<feBlend mode="normal" in="SourceGraphic" in2="effect1_dropShadow" result="shape"/>
</filter>
<clipPath id="clip0">
<rect width="25" height="25" fill="white" transform="translate(4)"/>
</clipPath>
</defs>
</svg>
