<svg width="32" height="32" viewBox="0 0 32 32" fill="none" xmlns="http://www.w3.org/2000/svg">
<path fill-rule="evenodd" clip-rule="evenodd" d="M28.4256 12.256C29.2256 12.624 31.2448 13.8304 31.5008 13.9936C31.6546 14.0891 31.7814 14.2225 31.8688 14.3811C31.9562 14.5397 32.0014 14.7181 32 14.8992V17.1008C32.0011 17.2846 31.9545 17.4655 31.8648 17.626C31.775 17.7864 31.6452 17.9208 31.488 18.016C31.1488 18.2304 29.1808 19.4048 28.4128 19.7536L27.4208 22.1536C27.7408 22.9984 28.3136 25.264 28.3808 25.5584C28.4211 25.7346 28.4158 25.9182 28.3655 26.0917C28.3151 26.2653 28.2212 26.4232 28.0928 26.5504L26.5376 28.1056C26.41 28.2335 26.2522 28.327 26.0787 28.3774C25.9052 28.4277 25.7218 28.4333 25.5456 28.3936L25.5052 28.3832C25.0243 28.2602 22.9102 27.719 22.1408 27.4336L19.7408 28.4256C19.3728 29.2256 18.1664 31.2448 18.0032 31.5008C17.9066 31.6536 17.7729 31.7795 17.6146 31.8668C17.4562 31.9541 17.2784 31.9999 17.0976 32H14.8992C14.7154 32.0011 14.5344 31.9545 14.374 31.8648C14.2136 31.775 14.0792 31.6452 13.984 31.488C13.7696 31.1488 12.5952 29.1808 12.2464 28.4128L9.84639 27.4208C9.00159 27.7408 6.73599 28.3136 6.44159 28.3808C6.2654 28.4211 6.08182 28.4159 5.90824 28.3655C5.73465 28.3151 5.57679 28.2212 5.44959 28.0928L3.8944 26.5376C3.76647 26.41 3.67296 26.2522 3.6226 26.0787C3.57223 25.9052 3.56666 25.7218 3.6064 25.5456L3.61674 25.5052C3.73986 25.0242 4.28097 22.9102 4.5664 22.1408L3.5744 19.7408C2.7744 19.3728 0.755199 18.1664 0.4992 18.0032C0.346375 17.9066 0.220467 17.7729 0.133187 17.6146C0.0459069 17.4562 9.05723e-05 17.2784 0 17.0976V14.8992C0.000199323 14.7173 0.0470877 14.5385 0.136175 14.38C0.225263 14.2214 0.353566 14.0884 0.508799 13.9936C0.847999 13.7792 2.816 12.6048 3.584 12.256L4.576 9.85599C4.256 9.01119 3.6832 6.7456 3.616 6.4512C3.57565 6.275 3.58092 6.09143 3.63132 5.91784C3.68171 5.74425 3.77557 5.58639 3.904 5.4592L5.45919 3.8944C5.58673 3.76647 5.74462 3.67296 5.91809 3.6226C6.09157 3.57224 6.27498 3.56666 6.45119 3.6064C6.46299 3.60942 6.47649 3.61287 6.4916 3.61674C6.97256 3.73985 9.08657 4.28097 9.85599 4.5664L12.256 3.5744C12.624 2.7744 13.8304 0.755199 13.9936 0.4992C14.0902 0.346375 14.2239 0.220467 14.3822 0.133187C14.5406 0.0459069 14.7184 9.05723e-05 14.8992 0H17.1008C17.2827 0.000199323 17.4614 0.0470877 17.62 0.136175C17.7786 0.225263 17.9116 0.353566 18.0064 0.5088C18.2208 0.847999 19.3952 2.816 19.744 3.584L22.144 4.576C22.9888 4.256 25.2544 3.6832 25.5488 3.616C25.725 3.57565 25.9085 3.58092 26.0821 3.63132C26.2557 3.68172 26.4136 3.77557 26.5408 3.904L28.1056 5.4592C28.2335 5.58674 28.327 5.74462 28.3774 5.91809C28.4277 6.09157 28.4333 6.27498 28.3936 6.4512L28.3832 6.49156C28.2602 6.97243 27.719 9.08654 27.4336 9.85599L28.4256 12.256ZM16 24.4211C20.6508 24.4211 24.4211 20.6508 24.4211 16C24.4211 11.3492 20.6508 7.57895 16 7.57895C11.3492 7.57895 7.57895 11.3492 7.57895 16C7.57895 20.6508 11.3492 24.4211 16 24.4211Z" fill="#FDFDFD"/>
</svg>
