<svg width="22" height="22" viewBox="0 0 22 22" fill="none" xmlns="http://www.w3.org/2000/svg">
<g clip-path="url(#clip0)">
<path d="M3.98999 0.336409L19.1211 15.4675L15.4913 19.0974L0.360171 3.96622C0.142879 3.74893 0.0207938 3.45421 0.020794 3.14691C0.0207938 2.83962 0.142879 2.5449 0.360171 2.3276L2.37213 0.315647C2.58942 0.0983545 2.88411 -0.023699 3.19141 -0.023699C3.4987 -0.023699 3.79342 0.0983861 4.01072 0.315678L3.98999 0.336409Z" fill="#2E3333"/>
<path d="M17.0283 20.6727L20.695 17.006L22.0003 21.318C22.0265 21.4066 22.0284 21.5006 22.0057 21.5902C21.9829 21.6797 21.9365 21.7615 21.8711 21.8268C21.8058 21.8921 21.724 21.9386 21.6345 21.9613C21.5449 21.9841 21.4509 21.9823 21.3623 21.956L17.0283 20.6727Z" fill="#2E3333"/>
</g>
<defs>
<clipPath id="clip0">
<rect width="22" height="22" fill="white"/>
</clipPath>
</defs>
</svg>
