<svg width="30" height="32" viewBox="0 0 30 32" fill="none" xmlns="http://www.w3.org/2000/svg">
<path fill-rule="evenodd" clip-rule="evenodd" d="M0 3C0 1.34315 1.34315 0 3 0H18.0526C19.7095 0 21.0526 1.34315 21.0526 3V14.3158V14.3504C15.8657 14.7783 11.7895 19.1237 11.7895 24.4211C11.7895 25.9237 12.1175 27.3498 12.7057 28.6316H12.6316H3C1.34314 28.6316 0 27.2884 0 25.6316V3ZM15.3236 28.1998C16.6325 30.4711 19.0851 32 21.8948 32C26.0805 32 29.4737 28.6068 29.4737 24.421C29.4737 20.2353 26.0805 16.8421 21.8948 16.8421C21.1871 16.8421 20.5021 16.9391 19.8523 17.1205C18.0019 17.6371 16.4371 18.8383 15.4482 20.4338C14.7303 21.592 14.3158 22.9582 14.3158 24.4211C14.3158 25.7971 14.6825 27.0875 15.3235 28.1999C15.3236 28.1999 15.3236 28.1999 15.3236 28.1998ZM3.7895 3.36842C3.09188 3.36842 2.52634 3.93396 2.52634 4.63158C2.52634 5.32921 3.09188 5.89474 3.7895 5.89474H17.2632C17.9608 5.89474 18.5263 5.32921 18.5263 4.63158C18.5263 3.93396 17.9608 3.36842 17.2632 3.36842H3.7895ZM2.52634 9.68423C2.52634 8.98661 3.09188 8.42107 3.7895 8.42107H13.0527C13.7503 8.42107 14.3158 8.98661 14.3158 9.68423C14.3158 10.3819 13.7503 10.9474 13.0527 10.9474H3.7895C3.09188 10.9474 2.52634 10.3819 2.52634 9.68423ZM22.2238 29.4737C21.8994 29.4737 21.6365 29.2108 21.6365 28.8864V28.4803C21.1145 28.4299 20.675 28.3039 20.3178 28.1024C20.1459 28.0054 19.9851 27.8967 19.8355 27.7763C19.5651 27.5588 19.5876 27.1584 19.8386 26.9188C20.1019 26.6673 20.5165 26.6889 20.8155 26.8967C20.8683 26.9333 20.9222 26.9681 20.9772 27.001C21.2176 27.1378 21.482 27.2278 21.7704 27.271V25.3274C20.9943 25.1619 20.438 24.9027 20.1015 24.55C19.7649 24.1973 19.5966 23.7582 19.5966 23.2327C19.5966 22.664 19.7683 22.1997 20.1118 21.8398C20.462 21.4799 20.9703 21.2603 21.6365 21.1812V20.7534C21.6365 20.4291 21.8994 20.1662 22.2238 20.1662C22.5481 20.1662 22.811 20.4291 22.811 20.7534V21.1812C23.2231 21.2316 23.5837 21.3395 23.8927 21.5051C24.0215 21.5711 24.1432 21.6471 24.2577 21.7331C24.5314 21.9387 24.5027 22.3358 24.2538 22.5708L24.1886 22.6324C23.9546 22.8534 23.5831 22.8289 23.3158 22.6496C23.1441 22.5345 22.9346 22.4481 22.6874 22.3905V24.1829C23.4154 24.3556 23.9511 24.604 24.2945 24.9279C24.6448 25.2518 24.82 25.6909 24.82 26.2452C24.82 26.7779 24.6551 27.2458 24.3254 27.6489C24.0026 28.052 23.4978 28.3147 22.811 28.4371V28.8864C22.811 29.2108 22.5481 29.4737 22.2238 29.4737ZM21.0184 23.1895C21.0184 23.3983 21.0768 23.5602 21.1935 23.6754C21.3171 23.7906 21.5095 23.8877 21.7704 23.9669V22.3689C21.5095 22.4265 21.3171 22.5273 21.1935 22.6712C21.0768 22.808 21.0184 22.9808 21.0184 23.1895ZM23.3982 26.364C23.3982 26.2056 23.3536 26.0545 23.2643 25.9105C23.175 25.7593 22.9827 25.6369 22.6874 25.5434V27.2494C22.9277 27.1774 23.1063 27.0658 23.2231 26.9147C23.3398 26.7563 23.3982 26.5727 23.3982 26.364Z" fill="#FDFDFD"/>
</svg>
