<svg width="300" height="97" viewBox="0 0 300 97" fill="none" xmlns="http://www.w3.org/2000/svg">
<g clip-path="url(#clip0)">
<path d="M41.234 24.0107C37.5469 21.8953 33.3635 20.7992 29.1132 20.8346C25.1756 20.7539 21.31 21.8985 18.0508 24.1105C15.5875 25.8581 13.5417 28.1298 12.0604 30.7625V22.2528H0.0795898V96.4624H12.0604V63.9221C13.5257 66.5607 15.5747 68.8291 18.0508 70.5539C21.3242 72.7294 25.1842 73.8516 29.1132 73.7701C33.3555 73.8031 37.5332 72.7291 41.234 70.6539C45.0049 68.5363 48.1047 65.4006 50.1796 61.6049C52.4007 57.1645 53.557 52.2676 53.557 47.3024C53.557 42.3371 52.4007 37.4401 50.1796 32.9997C48.0586 29.2542 44.9686 26.1491 41.234 24.0107ZM39.2371 55.9717C37.9312 58.2186 36.0403 60.0688 33.7659 61.3252C31.4568 62.5785 28.8648 63.2181 26.2379 63.1829C23.8687 63.1729 21.543 62.5465 19.489 61.3652C17.2481 60.1205 15.3796 58.3 14.0772 56.0916C12.6863 53.4279 11.96 50.4673 11.96 47.4621C11.96 44.4569 12.6863 41.4962 14.0772 38.8326C15.3791 36.6187 17.2473 34.7916 19.489 33.5391C21.548 32.3724 23.8715 31.7534 26.2379 31.7413C28.8576 31.705 31.4451 32.323 33.7659 33.5391C36.052 34.7797 37.9468 36.6336 39.2371 38.8926C40.6566 41.5191 41.3461 44.4784 41.234 47.4621C41.3311 50.3934 40.6416 53.2973 39.2371 55.8719V55.9717Z" fill="#63D2ED"/>
<path d="M93.151 22.8521C89.6543 21.6026 85.9612 20.9936 82.2486 21.0543C78.0165 20.9797 73.8047 21.656 69.8085 23.0519C66.7512 24.1122 63.7966 25.4494 60.9823 27.047L65.7749 35.3368C66.5736 34.8175 67.7716 34.1982 69.1494 33.3393C70.8342 32.4801 72.6086 31.8102 74.4407 31.3417C76.6 30.7883 78.8213 30.5132 81.0503 30.5228C82.48 30.5091 83.907 30.6566 85.3037 30.9623C86.5295 31.2084 87.6958 31.69 88.7382 32.3805C89.6939 33.0059 90.4655 33.8747 90.9744 34.8974C91.5426 36.1494 91.803 37.5194 91.7334 38.8926V45.0451C89.8943 44.0023 87.9369 43.1841 85.9029 42.608C83.081 41.8316 80.1628 41.4617 77.2366 41.5094C70.9866 41.5094 66.1343 42.9476 62.7198 45.8241C61.0336 47.2411 59.6942 49.0258 58.8046 51.0411C57.9151 53.0564 57.4988 55.2487 57.5878 57.4499C57.4703 60.4288 58.2509 63.3742 59.8284 65.9035C61.4059 68.4327 63.7077 70.4289 66.434 71.6327C69.1722 72.8819 72.1504 73.516 75.1598 73.4904C78.0876 73.4924 80.9911 72.9575 83.7262 71.9124C86.429 70.9232 88.8298 69.2508 90.695 67.0582C91.0878 66.6 91.4356 66.105 91.7334 65.58V72.4118H103.315V36.6553C103.401 33.599 102.459 30.6021 100.639 28.1457C98.6941 25.7078 96.0975 23.8721 93.151 22.8521ZM89.9959 59.0481C88.8596 60.8399 87.2589 62.2897 85.3637 63.2429C83.3484 64.2438 81.1239 64.7505 78.8741 64.7211C77.2149 64.747 75.5663 64.4485 74.0215 63.8421C72.6637 63.31 71.5005 62.3763 70.687 61.1655C69.863 59.8805 69.4453 58.3767 69.4887 56.8507C69.4496 55.4337 69.8471 54.039 70.627 52.8555C71.5004 51.6887 72.6934 50.8005 74.0615 50.2987C75.9818 49.6131 78.0139 49.2946 80.0519 49.3598C82.7527 49.3487 85.4415 49.7185 88.0391 50.4584C89.2736 50.8166 90.476 51.2777 91.6335 51.8368V52.536C91.689 54.8282 91.0863 57.0883 89.8965 59.0481H89.9959Z" fill="#63D2ED"/>
<path d="M132.408 54.8931L119.249 22.2729H105.711L125.998 66.5789L112.799 96.4824H125.359L158.087 22.2729H145.427L132.408 54.8931Z" fill="#63D2ED"/>
<path d="M227.778 10.3474C224.335 7.0176 220.261 4.4096 215.797 2.67669C206.186 -0.891498 195.615 -0.891498 186.005 2.67669C181.557 4.39419 177.504 6.9997 174.095 10.3343C170.687 13.669 167.992 17.663 166.176 22.0731C164.24 26.7855 163.276 31.8406 163.341 36.935C163.286 42.0256 164.215 47.0787 166.077 51.8167C167.838 56.2875 170.498 60.3492 173.891 63.7507C177.285 67.1522 181.339 69.8212 185.805 71.5927C195.502 75.3274 206.24 75.3274 215.937 71.5927C220.425 69.8238 224.503 67.1518 227.918 63.7423C231.284 60.3005 233.937 56.2274 235.725 51.7569C237.616 47.0255 238.565 41.9703 238.52 36.875C238.578 31.785 237.628 26.7339 235.725 22.0131C233.912 17.6161 231.205 13.6438 227.778 10.3474ZM220.27 49.0202C218.486 52.4466 215.8 55.32 212.502 57.33C209.95 58.9142 207.1 59.9579 204.129 60.3967C201.158 60.8355 198.128 60.6601 195.228 59.8812C192.327 59.1024 189.617 57.7368 187.264 55.8687C184.912 54.0006 182.968 51.6698 181.552 49.0202C179.687 45.2682 178.717 41.1351 178.717 36.945C178.717 32.7549 179.687 28.6217 181.552 24.8696C183.35 21.4355 186.049 18.5559 189.359 16.5398C192.905 14.5355 196.908 13.4822 200.981 13.4822C205.053 13.4822 209.056 14.5355 212.602 16.5398C215.902 18.5377 218.573 21.4243 220.31 24.8696C222.123 28.6365 223.065 32.7639 223.065 36.945C223.065 41.1261 222.123 45.2533 220.31 49.0202H220.27Z" fill="#63D2ED"/>
<path d="M294.83 44.5057C293.897 42.2695 292.541 40.2347 290.837 38.513C289.114 36.7876 287.166 35.3026 285.046 34.0983C282.927 32.8788 280.702 31.8559 278.397 31.0421C275.347 30.0368 272.365 28.8358 269.471 27.4465C267.492 26.539 265.704 25.2647 264.199 23.6911C263.067 22.424 262.453 20.7763 262.482 19.0767C262.484 18.2008 262.673 17.3354 263.039 16.5393C263.404 15.7432 263.936 15.0349 264.599 14.4624C266.406 13.0095 268.696 12.2957 271.008 12.4648C273.003 12.43 274.98 12.8609 276.779 13.7233C278.473 14.5618 280.001 15.6985 281.292 17.0792C282.618 18.4641 283.759 20.0151 284.686 21.6935L296.068 15.4011C294.736 12.7371 293.006 10.2919 290.936 8.14998C288.595 5.70429 285.801 3.73694 282.71 2.35711C279.021 0.756746 275.028 -0.0203822 271.008 0.0798581C266.891 0.0060039 262.805 0.816611 259.027 2.45697C255.659 3.91202 252.752 6.26049 250.621 9.24861C248.509 12.3378 247.426 16.0148 247.526 19.7558C247.462 22.773 248.149 25.7587 249.523 28.4453C250.761 30.7277 252.414 32.7597 254.395 34.438C256.301 36.0289 258.401 37.3713 260.645 38.4331C262.841 39.4719 264.778 40.3108 266.475 40.9101C269.65 42.1286 272.346 43.2671 274.463 44.3259C276.363 45.1464 278.06 46.3739 279.435 47.9216C280.643 49.474 281.253 51.4098 281.152 53.3749C281.187 54.5188 280.955 55.6551 280.477 56.6948C279.999 57.7345 279.287 58.6494 278.397 59.3676C276.373 60.9287 273.861 61.7214 271.308 61.6048C268.877 61.6222 266.477 61.068 264.299 59.9868C262.038 58.8437 260.007 57.293 258.309 55.4124C256.405 53.3053 254.751 50.9861 253.377 48.5008L243.033 55.8119C244.665 59.2357 246.858 62.3619 249.523 65.0606C252.328 67.9188 255.657 70.211 259.327 71.8124C263.148 73.4813 267.278 74.3253 271.447 74.2893C274.603 74.3118 277.74 73.8123 280.733 72.8112C283.62 71.8637 286.323 70.4243 288.72 68.5563C291.065 66.7169 292.969 64.3758 294.291 61.7047C295.673 58.8283 296.357 55.6665 296.288 52.476C296.332 49.7491 295.837 47.0404 294.83 44.5057Z" fill="#63D2ED"/>
</g>
<defs>
<clipPath id="clip0">
<rect width="300" height="96.4824" fill="white"/>
</clipPath>
</defs>
</svg>
