<svg width="25" height="25" viewBox="0 0 25 25" fill="none" xmlns="http://www.w3.org/2000/svg">
<g clip-path="url(#clip0)">
<path d="M24.5658 22.6376L17.9851 15.254C17.8609 15.0947 17.7059 14.962 17.5292 14.8641C17.3525 14.7661 17.1578 14.7048 16.9568 14.6839C16.7559 14.6631 16.5528 14.683 16.3597 14.7425C16.1666 14.802 15.9876 14.8999 15.8333 15.0303L15.0041 15.8595C14.8732 16.0138 14.775 16.1931 14.7155 16.3866C14.6559 16.58 14.6364 16.7835 14.6579 16.9848C14.6794 17.186 14.7416 17.3808 14.8407 17.5573C14.9398 17.7337 15.0738 17.8882 15.2344 18.0113L22.6179 24.592C22.7398 24.7377 22.8907 24.8564 23.061 24.9406C23.2313 25.0248 23.4173 25.0727 23.607 25.0811C23.7968 25.0895 23.9863 25.0583 24.1634 24.9896C24.3404 24.9208 24.5013 24.8159 24.6356 24.6816C24.7699 24.5472 24.8748 24.3864 24.9436 24.2093C25.0124 24.0322 25.0436 23.8428 25.0352 23.653C25.0267 23.4632 24.9789 23.2773 24.8947 23.107C24.8105 22.9367 24.6918 22.7858 24.5461 22.6639L24.5658 22.6376Z" fill="#585D5D"/>
<path d="M8.22586 0C6.59894 0 5.00855 0.482437 3.65582 1.3863C2.30308 2.29017 1.24875 3.5749 0.62615 5.07797C0.00355529 6.58105 -0.159332 8.23499 0.158064 9.83065C0.47546 11.4263 1.25888 12.892 2.40929 14.0424C3.55969 15.1928 5.0254 15.9762 6.62106 16.2936C8.21672 16.611 9.87066 16.4482 11.3737 15.8256C12.8768 15.203 14.1615 14.1486 15.0654 12.7959C15.9693 11.4432 16.4517 9.85277 16.4517 8.22585C16.4517 6.04422 15.585 3.95196 14.0424 2.40931C12.4998 0.866668 10.4075 0 8.22586 0ZM8.22586 13.8194C7.11956 13.8194 6.03809 13.4914 5.11823 12.8767C4.19838 12.2621 3.4814 11.3885 3.05804 10.3664C2.63467 9.34432 2.5239 8.21965 2.73973 7.1346C2.95556 6.04955 3.48831 5.05289 4.27059 4.27061C5.05286 3.48834 6.04956 2.95558 7.13461 2.73975C8.21966 2.52392 9.34434 2.6347 10.3664 3.05806C11.3885 3.48143 12.2621 4.19836 12.8767 5.11822C13.4913 6.03808 13.8194 7.11954 13.8194 8.22585C13.8177 9.70882 13.2278 11.1306 12.1792 12.1792C11.1305 13.2278 9.70884 13.8177 8.22586 13.8194Z" fill="#585D5D"/>
</g>
<defs>
<clipPath id="clip0">
<rect width="25" height="25" fill="white"/>
</clipPath>
</defs>
</svg>
