<svg width="32" height="32" viewBox="0 0 32 32" fill="currentcolor" xmlns="http://www.w3.org/2000/svg">
<g clip-path="url(#clip0)">
<path d="M10.6779 11.6463C10.7783 11.448 10.8303 11.2286 10.8295 11.0063C10.8333 10.7756 10.7813 10.5474 10.6779 10.3411C10.578 10.1489 10.4264 9.98848 10.2401 9.87792C10.0341 9.75546 9.79752 9.69411 9.55797 9.70106C9.3349 9.69862 9.11577 9.75999 8.9264 9.87792C8.73941 9.99028 8.58542 10.1501 8.48006 10.3411C8.36456 10.5373 8.30621 10.7619 8.31162 10.9895C8.30727 11.2197 8.3655 11.4467 8.48006 11.6463C8.58496 11.8421 8.73873 12.0075 8.9264 12.1263C9.11819 12.2377 9.33621 12.2958 9.55797 12.2948C9.79628 12.3003 10.0318 12.2422 10.2401 12.1263C10.4273 12.0095 10.5787 11.8434 10.6779 11.6463Z" fill="#FDFDFD"/>
<path d="M23.0905 19.8568C22.8875 19.7346 22.6537 19.6733 22.4168 19.68C22.1911 19.6778 21.9694 19.7391 21.7768 19.8568C21.5918 19.9716 21.4383 20.1308 21.3305 20.32C21.22 20.5182 21.162 20.7414 21.1621 20.9684C21.1621 21.198 21.22 21.424 21.3305 21.6253C21.4354 21.8211 21.5892 21.9864 21.7768 22.1052C21.9694 22.223 22.1911 22.2843 22.4168 22.2821C22.6537 22.2888 22.8875 22.2274 23.0905 22.1052C23.2777 21.9884 23.4292 21.8224 23.5284 21.6253C23.6353 21.429 23.6904 21.2087 23.6884 20.9853C23.6925 20.7535 23.6374 20.5245 23.5284 20.32C23.426 20.1295 23.2749 19.9697 23.0905 19.8568Z" fill="#FDFDFD"/>
<path d="M16 -2.67029e-05C12.8355 -2.67029e-05 9.74204 0.938365 7.11085 2.69647C4.47967 4.45457 2.42892 6.95346 1.21791 9.87708C0.00691223 12.8007 -0.309914 16.0177 0.30745 19.1214C0.924813 22.2251 2.44866 25.0761 4.6863 27.3137C6.92394 29.5513 9.77484 31.0752 12.8785 31.6926C15.9822 32.3099 19.1993 31.993 22.1229 30.782C25.0465 29.571 27.5454 27.5203 29.3035 24.8891C31.0616 22.2579 32 19.1645 32 16C32 11.7565 30.3143 7.68687 27.3137 4.68629C24.3131 1.68571 20.2435 -2.67029e-05 16 -2.67029e-05ZM6.3663 12.8168C6.1246 12.4072 5.96701 11.9534 5.90269 11.4821C5.83837 11.0108 5.86862 10.5314 5.99171 10.072C6.11481 9.61253 6.32827 9.18226 6.61959 8.80625C6.91091 8.43025 7.27427 8.11607 7.68841 7.88212C8.53919 7.38604 9.55077 7.24394 10.5053 7.48651C11.4598 7.72907 12.2808 8.33687 12.7916 9.17894C13.1117 9.73169 13.2803 10.3591 13.2803 10.9979C13.2803 11.6366 13.1117 12.2641 12.7916 12.8168C12.474 13.3633 12.018 13.8164 11.4695 14.1305C10.8874 14.4402 10.2382 14.6021 9.57893 14.6021C8.91965 14.6021 8.27046 14.4402 7.68841 14.1305C7.1364 13.8211 6.67928 13.3669 6.3663 12.8168ZM11.9579 23.5621C11.8794 23.664 11.7787 23.7466 11.6634 23.8035C11.5481 23.8605 11.4213 23.8902 11.2926 23.8905H8.96C8.88962 23.8905 8.82065 23.8709 8.76078 23.8339C8.70092 23.7969 8.6525 23.744 8.62103 23.681C8.58956 23.6181 8.57626 23.5477 8.58258 23.4776C8.5889 23.4075 8.61463 23.3405 8.65685 23.2842L20.0421 8.43788C20.1214 8.33485 20.2235 8.2516 20.3404 8.19462C20.4573 8.13764 20.5858 8.10847 20.7158 8.10945H23.0484C23.1188 8.10945 23.1878 8.12904 23.2476 8.16604C23.3075 8.20304 23.3559 8.256 23.3874 8.31895C23.4188 8.3819 23.4321 8.45234 23.4258 8.52243C23.4195 8.59252 23.3938 8.65949 23.3515 8.71579L11.9579 23.5621ZM25.6421 22.7958C25.3245 23.3423 24.8685 23.7954 24.32 24.1095C23.7459 24.4362 23.0942 24.6021 22.4337 24.5895C21.7708 24.5999 21.1169 24.4342 20.5389 24.1095C19.9869 23.8 19.5298 23.3458 19.2168 22.7958C18.9024 22.2411 18.7371 21.6144 18.7371 20.9768C18.7371 20.3393 18.9024 19.7125 19.2168 19.1579C19.5377 18.6183 19.9933 18.1714 20.5389 17.861C21.1147 17.5298 21.7696 17.361 22.4337 17.3726C23.0954 17.3587 23.7482 17.5277 24.32 17.861C24.862 18.1762 25.3166 18.622 25.6421 19.1579C25.9622 19.7106 26.1308 20.3381 26.1308 20.9768C26.1308 21.6156 25.9622 22.243 25.6421 22.7958Z" fill="#FDFDFD"/>
</g>
<defs>
<clipPath id="clip0">
<rect width="32" height="32" fill="white"/>
</clipPath>
</defs>
</svg>
