<svg width="38" height="25" viewBox="0 0 38 25" fill="none" xmlns="http://www.w3.org/2000/svg">
<g clip-path="url(#clip0)">
<path d="M31.29 20.25L30.22 21.39C29.8876 21.7677 29.4252 22.0063 28.9247 22.0582C28.4243 22.11 27.9227 21.9714 27.52 21.67L27.08 21.32L25.8199 22.7699C25.6422 22.9744 25.4258 23.1419 25.1833 23.2626C24.9407 23.3834 24.6767 23.4551 24.4064 23.4737C24.1361 23.4923 23.8648 23.4573 23.608 23.3709C23.3512 23.2845 23.114 23.1482 22.91 22.97L21.98 23.97C21.5015 24.4905 20.8437 24.8108 20.1389 24.8664C19.434 24.9221 18.7342 24.709 18.1799 24.2699L8.53998 17.35C8.1173 17.0115 7.59141 16.828 7.04993 16.83H0.959961C0.694744 16.83 0.440405 16.7246 0.252869 16.5371C0.0653323 16.3495 -0.0400391 16.0952 -0.0400391 15.83V4.60997C-0.0400391 4.34475 0.0653323 4.09041 0.252869 3.90288C0.440405 3.71534 0.694744 3.60997 0.959961 3.60997H4.78998C5.44384 3.6089 6.07815 3.38688 6.58997 2.97997L9.58997 0.559983C10.0126 0.221524 10.5385 0.0379916 11.08 0.0399632H12.28L10.4999 1.88997C9.46622 2.97056 8.89681 4.41299 8.91364 5.90831C8.93046 7.40363 9.5322 8.8329 10.59 9.88997C11.6445 10.9525 13.0747 11.5575 14.5715 11.5743C16.0684 11.5912 17.5118 11.0185 18.59 9.97997L20.03 8.59996H23.03L31.1 17.47L31.3599 17.77C31.6398 18.1264 31.786 18.5696 31.7732 19.0226C31.7604 19.4756 31.5895 19.9099 31.29 20.25Z" fill="#FDFDFD"/>
<path d="M38 4.91999V15.61C38 15.9336 37.8715 16.2439 37.6427 16.4727C37.4139 16.7015 37.1036 16.83 36.78 16.83H34.54L24.79 6.10999C24.6636 5.96836 24.5098 5.85372 24.3379 5.77296C24.1661 5.69219 23.9798 5.64697 23.79 5.63999H19.42C19.2359 5.63602 19.0527 5.66844 18.8811 5.73536C18.7095 5.80228 18.5529 5.90242 18.42 6.03001L16.51 7.84998C15.9967 8.32064 15.3213 8.57473 14.625 8.55918C13.9288 8.54363 13.2655 8.25965 12.7737 7.76655C12.2818 7.27345 11.9996 6.60937 11.9859 5.91306C11.9722 5.21676 12.228 4.54211 12.7 4.03001L15.53 1.03001C15.9459 0.604302 16.4723 0.302992 17.05 0.159982C17.2953 0.099323 17.5472 0.0690994 17.8 0.0699858H26.23C26.7938 0.066725 27.34 0.265372 27.77 0.629983L30.55 2.96998C31.0697 3.40208 31.7241 3.63907 32.4 3.63999H36.79C36.9541 3.64253 37.1161 3.67789 37.2663 3.744C37.4166 3.8101 37.5521 3.90559 37.6648 4.02488C37.7776 4.14417 37.8654 4.28482 37.9229 4.43855C37.9805 4.59227 38.0067 4.75598 38 4.91999Z" fill="#FDFDFD"/>
</g>
<defs>
<clipPath id="clip0">
<rect width="38" height="24.76" fill="white" transform="translate(0 0.119995)"/>
</clipPath>
</defs>
</svg>
